<mxfile host="app.diagrams.net" agent="Mozilla/5.0 (Windows NT 10.0; Win64; x64) AppleWebKit/537.36 (KHTML, like Gecko) Chrome/137.0.0.0 Safari/537.36 Edg/137.0.0.0" version="27.0.9">
  <diagram name="PÃ¡gina-1" id="ZurH2fXdVTG5PYq4CIAj">
    <mxGraphModel dx="915" dy="466" grid="1" gridSize="10" guides="1" tooltips="1" connect="1" arrows="1" fold="1" page="1" pageScale="1" pageWidth="900" pageHeight="1600" math="0" shadow="0">
      <root>
        <mxCell id="0" />
        <mxCell id="1" parent="0" />
        <mxCell id="sFrpPpEWKC99iiN2lbbx-5" value="DefesaCivilMunicipal" style="swimlane;fontStyle=1;align=center;verticalAlign=top;childLayout=stackLayout;horizontal=1;startSize=26;horizontalStack=0;resizeParent=1;resizeParentMax=0;resizeLast=0;collapsible=1;marginBottom=0;whiteSpace=wrap;html=1;" parent="1" vertex="1">
          <mxGeometry x="409" y="260" width="290" height="330" as="geometry" />
        </mxCell>
        <mxCell id="sFrpPpEWKC99iiN2lbbx-6" value="&lt;div&gt;- nomeMunicipio: String&lt;/div&gt;- nomeAgenteResponsavel: String&lt;div&gt;- cursoPrincipal: Curso&lt;/div&gt;" style="text;strokeColor=none;fillColor=none;align=left;verticalAlign=top;spacingLeft=4;spacingRight=4;overflow=hidden;rotatable=0;points=[[0,0.5],[1,0.5]];portConstraint=eastwest;whiteSpace=wrap;html=1;" parent="sFrpPpEWKC99iiN2lbbx-5" vertex="1">
          <mxGeometry y="26" width="290" height="44" as="geometry" />
        </mxCell>
        <mxCell id="sFrpPpEWKC99iiN2lbbx-7" value="" style="line;strokeWidth=1;fillColor=none;align=left;verticalAlign=middle;spacingTop=-1;spacingLeft=3;spacingRight=3;rotatable=0;labelPosition=right;points=[];portConstraint=eastwest;strokeColor=inherit;" parent="sFrpPpEWKC99iiN2lbbx-5" vertex="1">
          <mxGeometry y="70" width="290" height="8" as="geometry" />
        </mxCell>
        <mxCell id="sFrpPpEWKC99iiN2lbbx-8" value="+ registrarVoluntario(voluntario: Voluntario): void&lt;div&gt;&lt;br&gt;&lt;div&gt;+&lt;span data-lucid-content=&quot;{&amp;quot;t&amp;quot;:&amp;quot;+ criarCurso(nomeCurso: String, tipo: String, descricao: String, cargaHoraria: int): Curso\n+ criarCurso(nomeCurso: String, tipo: String, nomeModulo: String, videoUrl: String, conteudoTextual: String, descricao: String, cargaHoraria: int): Curso\n+ criarAvaliacao(Curso curso, String pergunta, String altA, String altB, String altC, String altD, String altCorreta): Avaliacao\n+ emitirCertificado(Curso curso, Voluntario voluntario): void&amp;quot;,&amp;quot;m&amp;quot;:[{&amp;quot;s&amp;quot;:0,&amp;quot;n&amp;quot;:&amp;quot;a&amp;quot;,&amp;quot;v&amp;quot;:&amp;quot;left&amp;quot;},{&amp;quot;s&amp;quot;:0,&amp;quot;n&amp;quot;:&amp;quot;p&amp;quot;,&amp;quot;v&amp;quot;:1.2},{&amp;quot;s&amp;quot;:91,&amp;quot;n&amp;quot;:&amp;quot;a&amp;quot;,&amp;quot;v&amp;quot;:&amp;quot;left&amp;quot;},{&amp;quot;s&amp;quot;:91,&amp;quot;n&amp;quot;:&amp;quot;p&amp;quot;,&amp;quot;v&amp;quot;:1.2},{&amp;quot;s&amp;quot;:245,&amp;quot;n&amp;quot;:&amp;quot;a&amp;quot;,&amp;quot;v&amp;quot;:&amp;quot;left&amp;quot;},{&amp;quot;s&amp;quot;:245,&amp;quot;n&amp;quot;:&amp;quot;p&amp;quot;,&amp;quot;v&amp;quot;:1.2},{&amp;quot;s&amp;quot;:374,&amp;quot;n&amp;quot;:&amp;quot;p&amp;quot;,&amp;quot;v&amp;quot;:1.2},{&amp;quot;s&amp;quot;:374,&amp;quot;n&amp;quot;:&amp;quot;a&amp;quot;,&amp;quot;v&amp;quot;:&amp;quot;left&amp;quot;},{&amp;quot;s&amp;quot;:0,&amp;quot;n&amp;quot;:&amp;quot;c&amp;quot;,&amp;quot;v&amp;quot;:&amp;quot;#000000ff&amp;quot;,&amp;quot;e&amp;quot;:7},{&amp;quot;s&amp;quot;:12,&amp;quot;n&amp;quot;:&amp;quot;c&amp;quot;,&amp;quot;v&amp;quot;:&amp;quot;#000000ff&amp;quot;,&amp;quot;e&amp;quot;:13},{&amp;quot;s&amp;quot;:82,&amp;quot;n&amp;quot;:&amp;quot;c&amp;quot;,&amp;quot;v&amp;quot;:&amp;quot;#000000ff&amp;quot;,&amp;quot;e&amp;quot;:85},{&amp;quot;s&amp;quot;:90,&amp;quot;n&amp;quot;:&amp;quot;c&amp;quot;,&amp;quot;v&amp;quot;:&amp;quot;#000000ff&amp;quot;,&amp;quot;e&amp;quot;:91},{&amp;quot;s&amp;quot;:0,&amp;quot;n&amp;quot;:&amp;quot;fsp&amp;quot;,&amp;quot;v&amp;quot;:&amp;quot;ss_presetShapeStyle3_textStyle&amp;quot;,&amp;quot;e&amp;quot;:244},{&amp;quot;s&amp;quot;:0,&amp;quot;n&amp;quot;:&amp;quot;s&amp;quot;,&amp;quot;v&amp;quot;:22.22222222222222,&amp;quot;e&amp;quot;:244},{&amp;quot;s&amp;quot;:244,&amp;quot;n&amp;quot;:&amp;quot;c&amp;quot;,&amp;quot;v&amp;quot;:&amp;quot;#000000ff&amp;quot;,&amp;quot;e&amp;quot;:247},{&amp;quot;s&amp;quot;:244,&amp;quot;n&amp;quot;:&amp;quot;c&amp;quot;,&amp;quot;v&amp;quot;:&amp;quot;#000000ff&amp;quot;,&amp;quot;e&amp;quot;:247},{&amp;quot;s&amp;quot;:244,&amp;quot;n&amp;quot;:&amp;quot;s&amp;quot;,&amp;quot;v&amp;quot;:22.22222222222222,&amp;quot;e&amp;quot;:262},{&amp;quot;s&amp;quot;:244,&amp;quot;n&amp;quot;:&amp;quot;fsp&amp;quot;,&amp;quot;v&amp;quot;:&amp;quot;ss_presetShapeStyle3_textStyle&amp;quot;,&amp;quot;e&amp;quot;:262},{&amp;quot;s&amp;quot;:252,&amp;quot;n&amp;quot;:&amp;quot;c&amp;quot;,&amp;quot;v&amp;quot;:&amp;quot;#000000ff&amp;quot;,&amp;quot;e&amp;quot;:258},{&amp;quot;s&amp;quot;:262,&amp;quot;n&amp;quot;:&amp;quot;s&amp;quot;,&amp;quot;v&amp;quot;:21.333333333333336,&amp;quot;e&amp;quot;:361},{&amp;quot;s&amp;quot;:361,&amp;quot;n&amp;quot;:&amp;quot;s&amp;quot;,&amp;quot;v&amp;quot;:22.22222222222222,&amp;quot;e&amp;quot;:373},{&amp;quot;s&amp;quot;:361,&amp;quot;n&amp;quot;:&amp;quot;fsp&amp;quot;,&amp;quot;v&amp;quot;:&amp;quot;ss_presetShapeStyle3_textStyle&amp;quot;,&amp;quot;e&amp;quot;:373},{&amp;quot;s&amp;quot;:373,&amp;quot;n&amp;quot;:&amp;quot;s&amp;quot;,&amp;quot;v&amp;quot;:22.22222222222222,&amp;quot;e&amp;quot;:435},{&amp;quot;s&amp;quot;:373,&amp;quot;n&amp;quot;:&amp;quot;fsp&amp;quot;,&amp;quot;v&amp;quot;:&amp;quot;ss_presetShapeStyle3_textStyle&amp;quot;,&amp;quot;e&amp;quot;:435},{&amp;quot;s&amp;quot;:374,&amp;quot;n&amp;quot;:&amp;quot;fsp2&amp;quot;,&amp;quot;v&amp;quot;:&amp;quot;ss_presetShapeStyle3_textStyle&amp;quot;,&amp;quot;e&amp;quot;:435}]}&quot; data-lucid-type=&quot;application/vnd.lucid.text&quot;&gt;&lt;font style=&quot;font-size: 12px;&quot;&gt;&amp;nbsp;criarCurso(nomeCurso: String, tipo: String, descricao: String, cargaHoraria: int): Curso&lt;/font&gt;&lt;/span&gt;&lt;/div&gt;&lt;div&gt;&lt;span data-lucid-content=&quot;{&amp;quot;t&amp;quot;:&amp;quot;+ criarCurso(nomeCurso: String, tipo: String, descricao: String, cargaHoraria: int): Curso\n+ criarCurso(nomeCurso: String, tipo: String, nomeModulo: String, videoUrl: String, conteudoTextual: String, descricao: String, cargaHoraria: int): Curso\n+ criarAvaliacao(Curso curso, String pergunta, String altA, String altB, String altC, String altD, String altCorreta): Avaliacao\n+ emitirCertificado(Curso curso, Voluntario voluntario): void&amp;quot;,&amp;quot;m&amp;quot;:[{&amp;quot;s&amp;quot;:0,&amp;quot;n&amp;quot;:&amp;quot;a&amp;quot;,&amp;quot;v&amp;quot;:&amp;quot;left&amp;quot;},{&amp;quot;s&amp;quot;:0,&amp;quot;n&amp;quot;:&amp;quot;p&amp;quot;,&amp;quot;v&amp;quot;:1.2},{&amp;quot;s&amp;quot;:91,&amp;quot;n&amp;quot;:&amp;quot;a&amp;quot;,&amp;quot;v&amp;quot;:&amp;quot;left&amp;quot;},{&amp;quot;s&amp;quot;:91,&amp;quot;n&amp;quot;:&amp;quot;p&amp;quot;,&amp;quot;v&amp;quot;:1.2},{&amp;quot;s&amp;quot;:245,&amp;quot;n&amp;quot;:&amp;quot;a&amp;quot;,&amp;quot;v&amp;quot;:&amp;quot;left&amp;quot;},{&amp;quot;s&amp;quot;:245,&amp;quot;n&amp;quot;:&amp;quot;p&amp;quot;,&amp;quot;v&amp;quot;:1.2},{&amp;quot;s&amp;quot;:374,&amp;quot;n&amp;quot;:&amp;quot;p&amp;quot;,&amp;quot;v&amp;quot;:1.2},{&amp;quot;s&amp;quot;:374,&amp;quot;n&amp;quot;:&amp;quot;a&amp;quot;,&amp;quot;v&amp;quot;:&amp;quot;left&amp;quot;},{&amp;quot;s&amp;quot;:0,&amp;quot;n&amp;quot;:&amp;quot;c&amp;quot;,&amp;quot;v&amp;quot;:&amp;quot;#000000ff&amp;quot;,&amp;quot;e&amp;quot;:7},{&amp;quot;s&amp;quot;:12,&amp;quot;n&amp;quot;:&amp;quot;c&amp;quot;,&amp;quot;v&amp;quot;:&amp;quot;#000000ff&amp;quot;,&amp;quot;e&amp;quot;:13},{&amp;quot;s&amp;quot;:82,&amp;quot;n&amp;quot;:&amp;quot;c&amp;quot;,&amp;quot;v&amp;quot;:&amp;quot;#000000ff&amp;quot;,&amp;quot;e&amp;quot;:85},{&amp;quot;s&amp;quot;:90,&amp;quot;n&amp;quot;:&amp;quot;c&amp;quot;,&amp;quot;v&amp;quot;:&amp;quot;#000000ff&amp;quot;,&amp;quot;e&amp;quot;:91},{&amp;quot;s&amp;quot;:0,&amp;quot;n&amp;quot;:&amp;quot;fsp&amp;quot;,&amp;quot;v&amp;quot;:&amp;quot;ss_presetShapeStyle3_textStyle&amp;quot;,&amp;quot;e&amp;quot;:244},{&amp;quot;s&amp;quot;:0,&amp;quot;n&amp;quot;:&amp;quot;s&amp;quot;,&amp;quot;v&amp;quot;:22.22222222222222,&amp;quot;e&amp;quot;:244},{&amp;quot;s&amp;quot;:244,&amp;quot;n&amp;quot;:&amp;quot;c&amp;quot;,&amp;quot;v&amp;quot;:&amp;quot;#000000ff&amp;quot;,&amp;quot;e&amp;quot;:247},{&amp;quot;s&amp;quot;:244,&amp;quot;n&amp;quot;:&amp;quot;c&amp;quot;,&amp;quot;v&amp;quot;:&amp;quot;#000000ff&amp;quot;,&amp;quot;e&amp;quot;:247},{&amp;quot;s&amp;quot;:244,&amp;quot;n&amp;quot;:&amp;quot;s&amp;quot;,&amp;quot;v&amp;quot;:22.22222222222222,&amp;quot;e&amp;quot;:262},{&amp;quot;s&amp;quot;:244,&amp;quot;n&amp;quot;:&amp;quot;fsp&amp;quot;,&amp;quot;v&amp;quot;:&amp;quot;ss_presetShapeStyle3_textStyle&amp;quot;,&amp;quot;e&amp;quot;:262},{&amp;quot;s&amp;quot;:252,&amp;quot;n&amp;quot;:&amp;quot;c&amp;quot;,&amp;quot;v&amp;quot;:&amp;quot;#000000ff&amp;quot;,&amp;quot;e&amp;quot;:258},{&amp;quot;s&amp;quot;:262,&amp;quot;n&amp;quot;:&amp;quot;s&amp;quot;,&amp;quot;v&amp;quot;:21.333333333333336,&amp;quot;e&amp;quot;:361},{&amp;quot;s&amp;quot;:361,&amp;quot;n&amp;quot;:&amp;quot;s&amp;quot;,&amp;quot;v&amp;quot;:22.22222222222222,&amp;quot;e&amp;quot;:373},{&amp;quot;s&amp;quot;:361,&amp;quot;n&amp;quot;:&amp;quot;fsp&amp;quot;,&amp;quot;v&amp;quot;:&amp;quot;ss_presetShapeStyle3_textStyle&amp;quot;,&amp;quot;e&amp;quot;:373},{&amp;quot;s&amp;quot;:373,&amp;quot;n&amp;quot;:&amp;quot;s&amp;quot;,&amp;quot;v&amp;quot;:22.22222222222222,&amp;quot;e&amp;quot;:435},{&amp;quot;s&amp;quot;:373,&amp;quot;n&amp;quot;:&amp;quot;fsp&amp;quot;,&amp;quot;v&amp;quot;:&amp;quot;ss_presetShapeStyle3_textStyle&amp;quot;,&amp;quot;e&amp;quot;:435},{&amp;quot;s&amp;quot;:374,&amp;quot;n&amp;quot;:&amp;quot;fsp2&amp;quot;,&amp;quot;v&amp;quot;:&amp;quot;ss_presetShapeStyle3_textStyle&amp;quot;,&amp;quot;e&amp;quot;:435}]}&quot; data-lucid-type=&quot;application/vnd.lucid.text&quot;&gt;&lt;font style=&quot;font-size: 12px;&quot;&gt;&lt;br&gt;+ criarCurso(nomeCurso: String, tipo: String, nomeModulo: String, videoUrl: String, conteudoTextual: String, descricao: String, cargaHoraria: int): Curso&lt;/font&gt;&lt;/span&gt;&lt;/div&gt;&lt;div&gt;&lt;span data-lucid-content=&quot;{&amp;quot;t&amp;quot;:&amp;quot;+ criarCurso(nomeCurso: String, tipo: String, descricao: String, cargaHoraria: int): Curso\n+ criarCurso(nomeCurso: String, tipo: String, nomeModulo: String, videoUrl: String, conteudoTextual: String, descricao: String, cargaHoraria: int): Curso\n+ criarAvaliacao(Curso curso, String pergunta, String altA, String altB, String altC, String altD, String altCorreta): Avaliacao\n+ emitirCertificado(Curso curso, Voluntario voluntario): void&amp;quot;,&amp;quot;m&amp;quot;:[{&amp;quot;s&amp;quot;:0,&amp;quot;n&amp;quot;:&amp;quot;a&amp;quot;,&amp;quot;v&amp;quot;:&amp;quot;left&amp;quot;},{&amp;quot;s&amp;quot;:0,&amp;quot;n&amp;quot;:&amp;quot;p&amp;quot;,&amp;quot;v&amp;quot;:1.2},{&amp;quot;s&amp;quot;:91,&amp;quot;n&amp;quot;:&amp;quot;a&amp;quot;,&amp;quot;v&amp;quot;:&amp;quot;left&amp;quot;},{&amp;quot;s&amp;quot;:91,&amp;quot;n&amp;quot;:&amp;quot;p&amp;quot;,&amp;quot;v&amp;quot;:1.2},{&amp;quot;s&amp;quot;:245,&amp;quot;n&amp;quot;:&amp;quot;a&amp;quot;,&amp;quot;v&amp;quot;:&amp;quot;left&amp;quot;},{&amp;quot;s&amp;quot;:245,&amp;quot;n&amp;quot;:&amp;quot;p&amp;quot;,&amp;quot;v&amp;quot;:1.2},{&amp;quot;s&amp;quot;:374,&amp;quot;n&amp;quot;:&amp;quot;p&amp;quot;,&amp;quot;v&amp;quot;:1.2},{&amp;quot;s&amp;quot;:374,&amp;quot;n&amp;quot;:&amp;quot;a&amp;quot;,&amp;quot;v&amp;quot;:&amp;quot;left&amp;quot;},{&amp;quot;s&amp;quot;:0,&amp;quot;n&amp;quot;:&amp;quot;c&amp;quot;,&amp;quot;v&amp;quot;:&amp;quot;#000000ff&amp;quot;,&amp;quot;e&amp;quot;:7},{&amp;quot;s&amp;quot;:12,&amp;quot;n&amp;quot;:&amp;quot;c&amp;quot;,&amp;quot;v&amp;quot;:&amp;quot;#000000ff&amp;quot;,&amp;quot;e&amp;quot;:13},{&amp;quot;s&amp;quot;:82,&amp;quot;n&amp;quot;:&amp;quot;c&amp;quot;,&amp;quot;v&amp;quot;:&amp;quot;#000000ff&amp;quot;,&amp;quot;e&amp;quot;:85},{&amp;quot;s&amp;quot;:90,&amp;quot;n&amp;quot;:&amp;quot;c&amp;quot;,&amp;quot;v&amp;quot;:&amp;quot;#000000ff&amp;quot;,&amp;quot;e&amp;quot;:91},{&amp;quot;s&amp;quot;:0,&amp;quot;n&amp;quot;:&amp;quot;fsp&amp;quot;,&amp;quot;v&amp;quot;:&amp;quot;ss_presetShapeStyle3_textStyle&amp;quot;,&amp;quot;e&amp;quot;:244},{&amp;quot;s&amp;quot;:0,&amp;quot;n&amp;quot;:&amp;quot;s&amp;quot;,&amp;quot;v&amp;quot;:22.22222222222222,&amp;quot;e&amp;quot;:244},{&amp;quot;s&amp;quot;:244,&amp;quot;n&amp;quot;:&amp;quot;c&amp;quot;,&amp;quot;v&amp;quot;:&amp;quot;#000000ff&amp;quot;,&amp;quot;e&amp;quot;:247},{&amp;quot;s&amp;quot;:244,&amp;quot;n&amp;quot;:&amp;quot;c&amp;quot;,&amp;quot;v&amp;quot;:&amp;quot;#000000ff&amp;quot;,&amp;quot;e&amp;quot;:247},{&amp;quot;s&amp;quot;:244,&amp;quot;n&amp;quot;:&amp;quot;s&amp;quot;,&amp;quot;v&amp;quot;:22.22222222222222,&amp;quot;e&amp;quot;:262},{&amp;quot;s&amp;quot;:244,&amp;quot;n&amp;quot;:&amp;quot;fsp&amp;quot;,&amp;quot;v&amp;quot;:&amp;quot;ss_presetShapeStyle3_textStyle&amp;quot;,&amp;quot;e&amp;quot;:262},{&amp;quot;s&amp;quot;:252,&amp;quot;n&amp;quot;:&amp;quot;c&amp;quot;,&amp;quot;v&amp;quot;:&amp;quot;#000000ff&amp;quot;,&amp;quot;e&amp;quot;:258},{&amp;quot;s&amp;quot;:262,&amp;quot;n&amp;quot;:&amp;quot;s&amp;quot;,&amp;quot;v&amp;quot;:21.333333333333336,&amp;quot;e&amp;quot;:361},{&amp;quot;s&amp;quot;:361,&amp;quot;n&amp;quot;:&amp;quot;s&amp;quot;,&amp;quot;v&amp;quot;:22.22222222222222,&amp;quot;e&amp;quot;:373},{&amp;quot;s&amp;quot;:361,&amp;quot;n&amp;quot;:&amp;quot;fsp&amp;quot;,&amp;quot;v&amp;quot;:&amp;quot;ss_presetShapeStyle3_textStyle&amp;quot;,&amp;quot;e&amp;quot;:373},{&amp;quot;s&amp;quot;:373,&amp;quot;n&amp;quot;:&amp;quot;s&amp;quot;,&amp;quot;v&amp;quot;:22.22222222222222,&amp;quot;e&amp;quot;:435},{&amp;quot;s&amp;quot;:373,&amp;quot;n&amp;quot;:&amp;quot;fsp&amp;quot;,&amp;quot;v&amp;quot;:&amp;quot;ss_presetShapeStyle3_textStyle&amp;quot;,&amp;quot;e&amp;quot;:435},{&amp;quot;s&amp;quot;:374,&amp;quot;n&amp;quot;:&amp;quot;fsp2&amp;quot;,&amp;quot;v&amp;quot;:&amp;quot;ss_presetShapeStyle3_textStyle&amp;quot;,&amp;quot;e&amp;quot;:435}]}&quot; data-lucid-type=&quot;application/vnd.lucid.text&quot;&gt;&lt;font style=&quot;font-size: 12px;&quot;&gt;&lt;br&gt;+ criarAvaliacao(curso: Curso, pergunta: String, altA&lt;/font&gt;&lt;/span&gt;&lt;span style=&quot;background-color: transparent; color: light-dark(rgb(0, 0, 0), rgb(255, 255, 255));&quot;&gt;: String&lt;/span&gt;&lt;span style=&quot;background-color: transparent; color: light-dark(rgb(0, 0, 0), rgb(255, 255, 255));&quot;&gt;, altB&lt;/span&gt;&lt;span style=&quot;background-color: transparent; color: light-dark(rgb(0, 0, 0), rgb(255, 255, 255));&quot;&gt;: String&lt;/span&gt;&lt;span style=&quot;background-color: transparent; color: light-dark(rgb(0, 0, 0), rgb(255, 255, 255));&quot;&gt;, altC&lt;/span&gt;&lt;span style=&quot;background-color: transparent; color: light-dark(rgb(0, 0, 0), rgb(255, 255, 255));&quot;&gt;: String&lt;/span&gt;&lt;span style=&quot;background-color: transparent; color: light-dark(rgb(0, 0, 0), rgb(255, 255, 255));&quot;&gt;, altD&lt;/span&gt;&lt;span style=&quot;background-color: transparent; color: light-dark(rgb(0, 0, 0), rgb(255, 255, 255));&quot;&gt;: String&lt;/span&gt;&lt;span style=&quot;background-color: transparent; color: light-dark(rgb(0, 0, 0), rgb(255, 255, 255));&quot;&gt;, altCorreta&lt;/span&gt;&lt;span style=&quot;background-color: transparent; color: light-dark(rgb(0, 0, 0), rgb(255, 255, 255));&quot;&gt;: String&lt;/span&gt;&lt;span style=&quot;background-color: transparent; color: light-dark(rgb(0, 0, 0), rgb(255, 255, 255));&quot;&gt;): Avaliacao&lt;/span&gt;&lt;/div&gt;&lt;div&gt;&lt;span style=&quot;background-color: transparent; color: light-dark(rgb(0, 0, 0), rgb(255, 255, 255));&quot;&gt;&lt;br&gt;&lt;/span&gt;&lt;/div&gt;&lt;div&gt;&lt;span data-lucid-content=&quot;{&amp;quot;t&amp;quot;:&amp;quot;+ criarCurso(nomeCurso: String, tipo: String, descricao: String, cargaHoraria: int): Curso\n+ criarCurso(nomeCurso: String, tipo: String, nomeModulo: String, videoUrl: String, conteudoTextual: String, descricao: String, cargaHoraria: int): Curso\n+ criarAvaliacao(Curso curso, String pergunta, String altA, String altB, String altC, String altD, String altCorreta): Avaliacao\n+ emitirCertificado(Curso curso, Voluntario voluntario): void&amp;quot;,&amp;quot;m&amp;quot;:[{&amp;quot;s&amp;quot;:0,&amp;quot;n&amp;quot;:&amp;quot;a&amp;quot;,&amp;quot;v&amp;quot;:&amp;quot;left&amp;quot;},{&amp;quot;s&amp;quot;:0,&amp;quot;n&amp;quot;:&amp;quot;p&amp;quot;,&amp;quot;v&amp;quot;:1.2},{&amp;quot;s&amp;quot;:91,&amp;quot;n&amp;quot;:&amp;quot;a&amp;quot;,&amp;quot;v&amp;quot;:&amp;quot;left&amp;quot;},{&amp;quot;s&amp;quot;:91,&amp;quot;n&amp;quot;:&amp;quot;p&amp;quot;,&amp;quot;v&amp;quot;:1.2},{&amp;quot;s&amp;quot;:245,&amp;quot;n&amp;quot;:&amp;quot;a&amp;quot;,&amp;quot;v&amp;quot;:&amp;quot;left&amp;quot;},{&amp;quot;s&amp;quot;:245,&amp;quot;n&amp;quot;:&amp;quot;p&amp;quot;,&amp;quot;v&amp;quot;:1.2},{&amp;quot;s&amp;quot;:374,&amp;quot;n&amp;quot;:&amp;quot;p&amp;quot;,&amp;quot;v&amp;quot;:1.2},{&amp;quot;s&amp;quot;:374,&amp;quot;n&amp;quot;:&amp;quot;a&amp;quot;,&amp;quot;v&amp;quot;:&amp;quot;left&amp;quot;},{&amp;quot;s&amp;quot;:0,&amp;quot;n&amp;quot;:&amp;quot;c&amp;quot;,&amp;quot;v&amp;quot;:&amp;quot;#000000ff&amp;quot;,&amp;quot;e&amp;quot;:7},{&amp;quot;s&amp;quot;:12,&amp;quot;n&amp;quot;:&amp;quot;c&amp;quot;,&amp;quot;v&amp;quot;:&amp;quot;#000000ff&amp;quot;,&amp;quot;e&amp;quot;:13},{&amp;quot;s&amp;quot;:82,&amp;quot;n&amp;quot;:&amp;quot;c&amp;quot;,&amp;quot;v&amp;quot;:&amp;quot;#000000ff&amp;quot;,&amp;quot;e&amp;quot;:85},{&amp;quot;s&amp;quot;:90,&amp;quot;n&amp;quot;:&amp;quot;c&amp;quot;,&amp;quot;v&amp;quot;:&amp;quot;#000000ff&amp;quot;,&amp;quot;e&amp;quot;:91},{&amp;quot;s&amp;quot;:0,&amp;quot;n&amp;quot;:&amp;quot;fsp&amp;quot;,&amp;quot;v&amp;quot;:&amp;quot;ss_presetShapeStyle3_textStyle&amp;quot;,&amp;quot;e&amp;quot;:244},{&amp;quot;s&amp;quot;:0,&amp;quot;n&amp;quot;:&amp;quot;s&amp;quot;,&amp;quot;v&amp;quot;:22.22222222222222,&amp;quot;e&amp;quot;:244},{&amp;quot;s&amp;quot;:244,&amp;quot;n&amp;quot;:&amp;quot;c&amp;quot;,&amp;quot;v&amp;quot;:&amp;quot;#000000ff&amp;quot;,&amp;quot;e&amp;quot;:247},{&amp;quot;s&amp;quot;:244,&amp;quot;n&amp;quot;:&amp;quot;c&amp;quot;,&amp;quot;v&amp;quot;:&amp;quot;#000000ff&amp;quot;,&amp;quot;e&amp;quot;:247},{&amp;quot;s&amp;quot;:244,&amp;quot;n&amp;quot;:&amp;quot;s&amp;quot;,&amp;quot;v&amp;quot;:22.22222222222222,&amp;quot;e&amp;quot;:262},{&amp;quot;s&amp;quot;:244,&amp;quot;n&amp;quot;:&amp;quot;fsp&amp;quot;,&amp;quot;v&amp;quot;:&amp;quot;ss_presetShapeStyle3_textStyle&amp;quot;,&amp;quot;e&amp;quot;:262},{&amp;quot;s&amp;quot;:252,&amp;quot;n&amp;quot;:&amp;quot;c&amp;quot;,&amp;quot;v&amp;quot;:&amp;quot;#000000ff&amp;quot;,&amp;quot;e&amp;quot;:258},{&amp;quot;s&amp;quot;:262,&amp;quot;n&amp;quot;:&amp;quot;s&amp;quot;,&amp;quot;v&amp;quot;:21.333333333333336,&amp;quot;e&amp;quot;:361},{&amp;quot;s&amp;quot;:361,&amp;quot;n&amp;quot;:&amp;quot;s&amp;quot;,&amp;quot;v&amp;quot;:22.22222222222222,&amp;quot;e&amp;quot;:373},{&amp;quot;s&amp;quot;:361,&amp;quot;n&amp;quot;:&amp;quot;fsp&amp;quot;,&amp;quot;v&amp;quot;:&amp;quot;ss_presetShapeStyle3_textStyle&amp;quot;,&amp;quot;e&amp;quot;:373},{&amp;quot;s&amp;quot;:373,&amp;quot;n&amp;quot;:&amp;quot;s&amp;quot;,&amp;quot;v&amp;quot;:22.22222222222222,&amp;quot;e&amp;quot;:435},{&amp;quot;s&amp;quot;:373,&amp;quot;n&amp;quot;:&amp;quot;fsp&amp;quot;,&amp;quot;v&amp;quot;:&amp;quot;ss_presetShapeStyle3_textStyle&amp;quot;,&amp;quot;e&amp;quot;:435},{&amp;quot;s&amp;quot;:374,&amp;quot;n&amp;quot;:&amp;quot;fsp2&amp;quot;,&amp;quot;v&amp;quot;:&amp;quot;ss_presetShapeStyle3_textStyle&amp;quot;,&amp;quot;e&amp;quot;:435}]}&quot; data-lucid-type=&quot;application/vnd.lucid.text&quot;&gt;&lt;font style=&quot;font-size: 12px;&quot;&gt;+ emitirCertificado(curso: Curso, voluntario: Voluntario): void&lt;/font&gt;&lt;/span&gt;&lt;br&gt;&lt;div&gt;&lt;br&gt;&lt;/div&gt;&lt;/div&gt;&lt;/div&gt;" style="text;strokeColor=none;fillColor=none;align=left;verticalAlign=top;spacingLeft=4;spacingRight=4;overflow=hidden;rotatable=0;points=[[0,0.5],[1,0.5]];portConstraint=eastwest;whiteSpace=wrap;html=1;spacingTop=0;" parent="sFrpPpEWKC99iiN2lbbx-5" vertex="1">
          <mxGeometry y="78" width="290" height="252" as="geometry" />
        </mxCell>
        <mxCell id="sFrpPpEWKC99iiN2lbbx-10" value="Avaliacao" style="swimlane;fontStyle=1;align=center;verticalAlign=top;childLayout=stackLayout;horizontal=1;startSize=26;horizontalStack=0;resizeParent=1;resizeParentMax=0;resizeLast=0;collapsible=1;marginBottom=0;whiteSpace=wrap;html=1;" parent="1" vertex="1">
          <mxGeometry x="590" y="730" width="170" height="170" as="geometry" />
        </mxCell>
        <mxCell id="sFrpPpEWKC99iiN2lbbx-11" value="- pergunta: String&lt;div&gt;- alternativaA: String&lt;/div&gt;&lt;div&gt;- alternativaB: String&lt;/div&gt;&lt;div&gt;- alternativaC: String&lt;/div&gt;&lt;div&gt;- alternativaD: String&lt;/div&gt;&lt;div&gt;- alternativaCorreta: String&lt;/div&gt;" style="text;strokeColor=none;fillColor=none;align=left;verticalAlign=top;spacingLeft=4;spacingRight=4;overflow=hidden;rotatable=0;points=[[0,0.5],[1,0.5]];portConstraint=eastwest;whiteSpace=wrap;html=1;" parent="sFrpPpEWKC99iiN2lbbx-10" vertex="1">
          <mxGeometry y="26" width="170" height="94" as="geometry" />
        </mxCell>
        <mxCell id="sFrpPpEWKC99iiN2lbbx-12" value="" style="line;strokeWidth=1;fillColor=none;align=left;verticalAlign=middle;spacingTop=-1;spacingLeft=3;spacingRight=3;rotatable=0;labelPosition=right;points=[];portConstraint=eastwest;strokeColor=inherit;" parent="sFrpPpEWKC99iiN2lbbx-10" vertex="1">
          <mxGeometry y="120" width="170" height="8" as="geometry" />
        </mxCell>
        <mxCell id="sFrpPpEWKC99iiN2lbbx-13" value="+ verificarResposta(resposta: String): void" style="text;strokeColor=none;fillColor=none;align=left;verticalAlign=top;spacingLeft=4;spacingRight=4;overflow=hidden;rotatable=0;points=[[0,0.5],[1,0.5]];portConstraint=eastwest;whiteSpace=wrap;html=1;" parent="sFrpPpEWKC99iiN2lbbx-10" vertex="1">
          <mxGeometry y="128" width="170" height="42" as="geometry" />
        </mxCell>
        <mxCell id="sFrpPpEWKC99iiN2lbbx-14" value="Certificado" style="swimlane;fontStyle=1;align=center;verticalAlign=top;childLayout=stackLayout;horizontal=1;startSize=26;horizontalStack=0;resizeParent=1;resizeParentMax=0;resizeLast=0;collapsible=1;marginBottom=0;whiteSpace=wrap;html=1;" parent="1" vertex="1">
          <mxGeometry x="200" y="650" width="170" height="98" as="geometry" />
        </mxCell>
        <mxCell id="sFrpPpEWKC99iiN2lbbx-15" value="- voluntario: Voluntario&lt;div&gt;- curso: Curso&lt;/div&gt;&lt;div&gt;- dataEmissao: LocalDate&lt;/div&gt;" style="text;strokeColor=none;fillColor=none;align=left;verticalAlign=top;spacingLeft=4;spacingRight=4;overflow=hidden;rotatable=0;points=[[0,0.5],[1,0.5]];portConstraint=eastwest;whiteSpace=wrap;html=1;" parent="sFrpPpEWKC99iiN2lbbx-14" vertex="1">
          <mxGeometry y="26" width="170" height="54" as="geometry" />
        </mxCell>
        <mxCell id="sFrpPpEWKC99iiN2lbbx-16" value="" style="line;strokeWidth=1;fillColor=none;align=left;verticalAlign=middle;spacingTop=-1;spacingLeft=3;spacingRight=3;rotatable=0;labelPosition=right;points=[];portConstraint=eastwest;strokeColor=inherit;" parent="sFrpPpEWKC99iiN2lbbx-14" vertex="1">
          <mxGeometry y="80" width="170" height="18" as="geometry" />
        </mxCell>
        <mxCell id="sFrpPpEWKC99iiN2lbbx-18" value="Modulo" style="swimlane;fontStyle=1;align=center;verticalAlign=top;childLayout=stackLayout;horizontal=1;startSize=26;horizontalStack=0;resizeParent=1;resizeParentMax=0;resizeLast=0;collapsible=1;marginBottom=0;whiteSpace=wrap;html=1;" parent="1" vertex="1">
          <mxGeometry x="590" y="620" width="170" height="98" as="geometry" />
        </mxCell>
        <mxCell id="sFrpPpEWKC99iiN2lbbx-19" value="- nome: String&lt;div&gt;&lt;span style=&quot;background-color: transparent; color: light-dark(rgb(0, 0, 0), rgb(255, 255, 255));&quot;&gt;- videoUrl: String&lt;/span&gt;&lt;div&gt;- conteudoTextual: String&lt;/div&gt;&lt;/div&gt;" style="text;strokeColor=none;fillColor=none;align=left;verticalAlign=top;spacingLeft=4;spacingRight=4;overflow=hidden;rotatable=0;points=[[0,0.5],[1,0.5]];portConstraint=eastwest;whiteSpace=wrap;html=1;" parent="sFrpPpEWKC99iiN2lbbx-18" vertex="1">
          <mxGeometry y="26" width="170" height="54" as="geometry" />
        </mxCell>
        <mxCell id="sFrpPpEWKC99iiN2lbbx-20" value="" style="line;strokeWidth=1;fillColor=none;align=left;verticalAlign=middle;spacingTop=-1;spacingLeft=3;spacingRight=3;rotatable=0;labelPosition=right;points=[];portConstraint=eastwest;strokeColor=inherit;" parent="sFrpPpEWKC99iiN2lbbx-18" vertex="1">
          <mxGeometry y="80" width="170" height="18" as="geometry" />
        </mxCell>
        <mxCell id="sFrpPpEWKC99iiN2lbbx-21" value="Curso" style="swimlane;fontStyle=1;align=center;verticalAlign=top;childLayout=stackLayout;horizontal=1;startSize=26;horizontalStack=0;resizeParent=1;resizeParentMax=0;resizeLast=0;collapsible=1;marginBottom=0;whiteSpace=wrap;html=1;" parent="1" vertex="1">
          <mxGeometry x="390" y="620" width="170" height="170" as="geometry" />
        </mxCell>
        <mxCell id="sFrpPpEWKC99iiN2lbbx-22" value="- nome: String&lt;div&gt;- tipo: String&lt;/div&gt;&lt;div&gt;- descricao: String&lt;/div&gt;&lt;div&gt;- modulo: Modulo&lt;/div&gt;&lt;div&gt;- cargaHoraria: int&lt;/div&gt;&lt;div&gt;- avaliacao: Avaliacao&lt;/div&gt;" style="text;strokeColor=none;fillColor=none;align=left;verticalAlign=top;spacingLeft=4;spacingRight=4;overflow=hidden;rotatable=0;points=[[0,0.5],[1,0.5]];portConstraint=eastwest;whiteSpace=wrap;html=1;" parent="sFrpPpEWKC99iiN2lbbx-21" vertex="1">
          <mxGeometry y="26" width="170" height="94" as="geometry" />
        </mxCell>
        <mxCell id="sFrpPpEWKC99iiN2lbbx-23" value="" style="line;strokeWidth=1;fillColor=none;align=left;verticalAlign=middle;spacingTop=-1;spacingLeft=3;spacingRight=3;rotatable=0;labelPosition=right;points=[];portConstraint=eastwest;strokeColor=inherit;" parent="sFrpPpEWKC99iiN2lbbx-21" vertex="1">
          <mxGeometry y="120" width="170" height="8" as="geometry" />
        </mxCell>
        <mxCell id="sFrpPpEWKC99iiN2lbbx-24" value="+ adicionarModulo(modulo: Modulo): void" style="text;strokeColor=none;fillColor=none;align=left;verticalAlign=top;spacingLeft=4;spacingRight=4;overflow=hidden;rotatable=0;points=[[0,0.5],[1,0.5]];portConstraint=eastwest;whiteSpace=wrap;html=1;" parent="sFrpPpEWKC99iiN2lbbx-21" vertex="1">
          <mxGeometry y="128" width="170" height="42" as="geometry" />
        </mxCell>
        <mxCell id="sFrpPpEWKC99iiN2lbbx-25" value="Voluntario" style="swimlane;fontStyle=1;align=center;verticalAlign=top;childLayout=stackLayout;horizontal=1;startSize=26;horizontalStack=0;resizeParent=1;resizeParentMax=0;resizeLast=0;collapsible=1;marginBottom=0;whiteSpace=wrap;html=1;" parent="1" vertex="1">
          <mxGeometry x="168" y="302" width="200" height="250" as="geometry" />
        </mxCell>
        <mxCell id="sFrpPpEWKC99iiN2lbbx-26" value="- nomeCompleto: String&lt;div&gt;&lt;span style=&quot;background-color: transparent; color: light-dark(rgb(0, 0, 0), rgb(255, 255, 255));&quot;&gt;- cpf: String&lt;/span&gt;&lt;/div&gt;&lt;div&gt;&lt;span style=&quot;background-color: transparent; color: light-dark(rgb(0, 0, 0), rgb(255, 255, 255));&quot;&gt;- dataNascimento: LocalDate&lt;/span&gt;&lt;/div&gt;&lt;div&gt;&lt;span style=&quot;background-color: transparent; color: light-dark(rgb(0, 0, 0), rgb(255, 255, 255));&quot;&gt;- email: String&lt;/span&gt;&lt;/div&gt;&lt;div&gt;&lt;span style=&quot;background-color: transparent; color: light-dark(rgb(0, 0, 0), rgb(255, 255, 255));&quot;&gt;- telefone: String&lt;/span&gt;&lt;/div&gt;&lt;div&gt;&lt;span style=&quot;background-color: transparent; color: light-dark(rgb(0, 0, 0), rgb(255, 255, 255));&quot;&gt;- ocupacao: String&lt;/span&gt;&lt;/div&gt;&lt;div&gt;&lt;span style=&quot;background-color: transparent; color: light-dark(rgb(0, 0, 0), rgb(255, 255, 255));&quot;&gt;- habilidade: String&lt;/span&gt;&lt;/div&gt;&lt;div&gt;&lt;span style=&quot;background-color: transparent; color: light-dark(rgb(0, 0, 0), rgb(255, 255, 255));&quot;&gt;- curso: Curso&lt;/span&gt;&lt;/div&gt;&lt;div&gt;&lt;span style=&quot;background-color: transparent; color: light-dark(rgb(0, 0, 0), rgb(255, 255, 255));&quot;&gt;- certificado: Certificado&lt;/span&gt;&lt;/div&gt;&lt;div&gt;- aprovadoEmAvaliacao: boolean&lt;/div&gt;" style="text;strokeColor=none;fillColor=none;align=left;verticalAlign=top;spacingLeft=4;spacingRight=4;overflow=hidden;rotatable=0;points=[[0,0.5],[1,0.5]];portConstraint=eastwest;whiteSpace=wrap;html=1;" parent="sFrpPpEWKC99iiN2lbbx-25" vertex="1">
          <mxGeometry y="26" width="200" height="154" as="geometry" />
        </mxCell>
        <mxCell id="sFrpPpEWKC99iiN2lbbx-27" value="" style="line;strokeWidth=1;fillColor=none;align=left;verticalAlign=middle;spacingTop=-1;spacingLeft=3;spacingRight=3;rotatable=0;labelPosition=right;points=[];portConstraint=eastwest;strokeColor=inherit;" parent="sFrpPpEWKC99iiN2lbbx-25" vertex="1">
          <mxGeometry y="180" width="200" height="8" as="geometry" />
        </mxCell>
        <mxCell id="sFrpPpEWKC99iiN2lbbx-28" value="+ realizaAvaliacaoCurso (resposta: String): void&lt;div&gt;+ visualizarCertificado(): void&lt;/div&gt;" style="text;strokeColor=none;fillColor=none;align=left;verticalAlign=top;spacingLeft=4;spacingRight=4;overflow=hidden;rotatable=0;points=[[0,0.5],[1,0.5]];portConstraint=eastwest;whiteSpace=wrap;html=1;" parent="sFrpPpEWKC99iiN2lbbx-25" vertex="1">
          <mxGeometry y="188" width="200" height="62" as="geometry" />
        </mxCell>
      </root>
    </mxGraphModel>
  </diagram>
</mxfile>
